<!-- Generated by IcoMoon.io -->
<svg version="1.1" xmlns="http://www.w3.org/2000/svg" width="1100" height="1024" viewBox="0 0 1100 1024">
<title></title>
<g id="icomoon-ignore">
</g>
<path fill="#000" d="M98.607 98.607c-32.237 32.237-32.237 832.474 0 864.711s832.474 32.237 864.711 0c32.237-32.237 32.237-832.474 0-864.711s-832.474-32.237-864.711 0zM773.689 237.037c30.341 22.756 49.304 24.652 79.644 9.481 41.719-22.756 51.2-1.896 15.17 34.133-17.067 17.067-15.17 22.756 13.274 22.756 30.341 0 32.237 3.793 5.689 32.237-15.17 18.963-34.133 72.059-41.719 117.57-37.926 248.415-252.207 419.081-496.83 394.43-54.993-5.689-119.467-20.859-144.119-34.133l-43.615-26.548 47.407-5.689c26.548-1.896 72.059-15.17 100.504-26.548l53.096-20.859-62.578-53.096c-53.096-45.511-58.785-56.889-34.133-73.956 18.963-13.274 20.859-18.963 3.793-18.963-22.756 0-98.607-106.193-98.607-138.43 0-9.481 18.963-9.481 43.615-1.896 39.822 11.378 39.822 11.378 9.481-24.652-32.237-36.030-43.615-75.852-37.926-144.119 3.793-30.341 9.481-30.341 66.37 11.378 89.126 68.267 174.459 108.089 231.348 108.089 37.926 0 47.407-9.481 47.407-45.511 0-54.993 98.607-144.119 159.289-144.119 22.756 0 58.785 13.274 83.437 28.444z"></path>
</svg>
