<!-- Generated by IcoMoon.io -->
<svg version="1.1" xmlns="http://www.w3.org/2000/svg" width="1024" height="1024" viewBox="0 0 1024 1024">
<title></title>
<g id="icomoon-ignore">
</g>
<path fill="#000" d="M482.133 310.613c-54.613 24.747-98.133 93.867-98.133 156.16 0 17.92 8.533 49.493 17.92 69.973l17.067 38.4-62.293 62.293c-54.613 55.467-60.587 64-48.64 75.093 11.093 11.093 19.627 5.973 75.093-50.347l63.147-64 32.427 17.067c65.707 33.28 162.987 11.947 206.507-44.373 86.187-115.2 9.387-273.067-132.267-272.213-24.747 0.853-56.32 5.973-70.827 11.947zM629.76 354.987c35.84 26.453 64 88.747 56.32 126.293-13.653 73.387-71.68 119.467-142.507 113.493-127.147-11.093-163.84-170.667-56.32-243.2 23.893-17.067 36.693-19.627 74.24-17.067 26.453 2.56 54.613 11.093 68.267 20.48z"></path>
</svg>
