<!-- Generated by IcoMoon.io -->
<svg version="1.1" xmlns="http://www.w3.org/2000/svg" width="1024" height="1024" viewBox="0 0 1024 1024">
<title></title>
<g id="icomoon-ignore">
</g>
<path fill="#0073b2" d="M948.204 0h-872.621c-41.699 0-75.583 33.052-75.583 73.806v876.302c0 40.789 33.884 73.892 75.583 73.892h872.621c41.77 0 75.796-33.102 75.796-73.892v-876.302c0-40.754-34.026-73.806-75.796-73.806z"></path>
<path fill="#fff" d="M405.028 877.714h151.475v-241.691c0-63.729 12.079-125.452 90.957-125.452 77.728 0 78.772 72.871 78.772 129.554v237.589h151.482v-267.989c0-131.545-28.346-232.733-181.844-232.733-73.74 0-123.193 40.502-143.42 78.907h-2.016v-66.75h-145.407v488.565zM234.199 146.286c48.46 0 87.842 39.45 87.842 88.014 0 48.6-39.382 88.064-87.842 88.064-48.587 0-87.913-39.464-87.913-88.064 0-48.564 39.325-88.014 87.913-88.014v0zM158.365 877.714h151.589v-488.565h-151.589v488.565z"></path>
</svg>
