<!-- Generated by IcoMoon.io -->
<svg version="1.1" xmlns="http://www.w3.org/2000/svg" width="814" height="1024" viewBox="0 0 814 1024">
<title></title>
<g id="icomoon-ignore">
</g>
<path fill="#000" d="M68.267 120.779c-22.318 22.318-22.318 576.328 0 598.646s576.328 22.318 598.646 0c22.318-22.318 22.318-576.328 0-598.646s-576.328-22.318-598.646 0zM236.308 216.615c19.692 23.631 13.128 59.077-15.754 77.456-45.949 28.882-97.149-35.446-63.015-77.456 21.005-24.944 57.764-24.944 78.769 0zM236.308 492.308v150.974h-78.769v-301.949h78.769v150.974zM391.221 362.338c10.503 18.379 13.128 18.379 27.569 0 10.503-13.128 38.072-21.005 66.954-21.005 81.395 0 105.026 42.010 105.026 185.108v116.841h-90.585l-3.938-99.774c-2.626-78.769-9.19-103.713-26.256-115.528-17.067-10.503-30.195-10.503-45.949 0-18.379 11.815-24.944 36.759-27.569 115.528l-3.938 99.774h-90.585v-301.949h39.385c21.005 0 43.323 9.19 49.887 21.005z"></path>
</svg>
