<!-- Generated by IcoMoon.io -->
<svg version="1.1" xmlns="http://www.w3.org/2000/svg" width="1024" height="1024" viewBox="0 0 1024 1024">
<title></title>
<g id="icomoon-ignore">
</g>
<path fill="#000" d="M422.4 314.88c-142.507 66.56-171.52 262.827-52.053 364.373 105.813 91.307 261.12 62.293 333.653-61.44 45.227-76.8 28.16-192-39.253-258.56-42.667-42.667-87.893-60.587-152.747-60.587-35.84 0-67.413 5.973-89.6 16.213zM591.36 342.187c12.8 5.973 23.040 12.8 23.040 15.36s-22.187 17.92-48.64 33.28l-47.787 28.16-31.573-30.72c-17.067-17.067-39.253-29.867-51.2-29.867-23.893 0-16.213-9.387 19.627-23.040 31.573-12.8 102.4-9.387 136.533 6.827zM469.333 405.333c15.36 16.213 17.067 22.187 7.68 36.693-5.973 9.387-23.040 23.040-38.4 29.867-18.773 9.387-29.013 21.333-33.28 39.253-5.973 28.16-11.947 32.427-26.453 17.92-5.973-5.973-13.653-3.413-24.747 8.533-23.040 25.6-29.867 21.333-29.867-21.333 0-43.52 17.92-93.013 42.667-119.467 22.187-23.893 76.8-18.773 102.4 8.533zM680.107 425.813c13.653 26.453 19.627 52.053 19.627 84.48v46.933l-17.92-16.213c-10.24-8.533-29.013-38.4-42.667-65.707-13.653-26.453-25.6-48.64-27.307-48.64-0.853 0-14.507 3.413-29.867 7.68-16.213 5.12-27.307 5.12-27.307 0 0-10.24 77.653-50.347 93.013-47.787 6.827 0.853 21.333 18.773 32.427 39.253zM531.627 451.413c5.12 23.893 6.827 24.747 32.427 17.92 32.427-9.387 37.547-6.827 55.467 28.16 7.68 15.36 27.307 40.96 43.52 58.027l29.867 31.573-20.48 30.72c-11.947 17.067-38.4 42.667-58.88 57.173-24.747 17.92-31.573 21.333-21.333 9.387 16.213-17.92 16.213-19.627 0.853-52.907l-15.36-34.133-43.52 5.12c-23.893 3.413-47.787 9.387-52.907 15.36-13.653 13.653-29.867 65.707-23.040 75.947 13.653 22.187-70.827-35.84-93.867-64-24.747-30.72-25.6-33.28-11.093-48.64 8.533-9.387 19.627-15.36 25.6-12.8 18.773 6.827 57.173-12.8 55.467-28.16-2.56-29.867 1.707-36.693 29.013-48.64 17.92-6.827 32.427-21.333 39.253-38.4 14.507-33.28 23.040-33.28 29.013-1.707z"></path>
</svg>
