<!-- Generated by IcoMoon.io -->
<svg version="1.1" xmlns="http://www.w3.org/2000/svg" width="1024" height="1024" viewBox="0 0 1024 1024">
<title></title>
<g id="icomoon-ignore">
</g>
<path fill="#1da1f2" d="M947.2 0h-870.4c-43.886 0-76.8 32.914-76.8 73.143v877.714c0 40.229 32.914 73.143 76.8 73.143h874.057c40.229 0 76.8-32.914 76.8-73.143v-877.714c-3.657-40.229-36.571-73.143-80.457-73.143zM870.4 332.8c0 7.314 0 14.629 0 21.943 0 241.371-182.857 519.314-512 519.314-102.4 0-197.486-29.257-274.286-80.457 14.629 0 29.257 3.657 43.886 3.657 84.114 0 160.914-29.257 223.086-76.8-80.457 0-146.286-54.857-168.229-128 10.971 3.657 21.943 3.657 32.914 3.657 14.629 0 32.914-3.657 47.543-7.314-84.114-18.286-146.286-91.429-146.286-179.2 0 0 0 0 0-3.657 25.6 14.629 51.2 21.943 80.457 21.943-47.543-32.914-80.457-87.771-80.457-149.943 0-32.914 7.314-65.829 25.6-91.429 87.771 109.714 223.086 182.857 369.371 190.171 0-10.971-3.657-25.6-3.657-40.229 0-98.743 80.457-182.857 179.2-182.857 51.2 0 98.743 21.943 131.657 58.514 40.229-7.314 80.457-21.943 113.371-43.886-14.629 43.886-40.229 76.8-80.457 102.4 36.571-3.657 69.486-14.629 102.4-29.257-18.286 32.914-47.543 65.829-84.114 91.429z"></path>
</svg>
