<!-- Generated by IcoMoon.io -->
<svg version="1.1" xmlns="http://www.w3.org/2000/svg" width="964" height="1024" viewBox="0 0 964 1024">
<title></title>
<g id="icomoon-ignore">
</g>
<path fill="#000" d="M82.824 79.812c-4.518 10.541-6.024 171.671-4.518 356.894l4.518 338.824 385.506 9.035-9.035-280.094-48.188-4.518c-45.176-4.518-49.694-9.035-49.694-57.224s3.012-51.2 52.706-51.2h52.706v-73.788c0-105.412 31.624-140.047 140.047-149.082l85.835-6.024v52.706c0 51.2-3.012 54.212-55.718 58.729-54.212 4.518-57.224 7.529-61.741 60.235l-4.518 57.224h61.741c51.2 0 61.741 4.518 54.212 24.094-4.518 13.553-9.035 36.141-9.035 52.706 0 22.588-10.541 28.612-52.706 28.612h-52.706v287.624l218.353-9.035v-707.765l-350.871-4.518c-275.576-3.012-352.376 0-356.894 16.565z"></path>
</svg>
