<!-- Generated by IcoMoon.io -->
<svg version="1.1" xmlns="http://www.w3.org/2000/svg" width="1024" height="1024" viewBox="0 0 1024 1024">
<title></title>
<g id="icomoon-ignore">
</g>
<path fill="#000" d="M0 512v512h1024v-1024h-1024v512zM682.667 375.467c0 16.213-5.973 17.067-170.667 17.067s-170.667-0.853-170.667-17.067c0-16.213 5.973-17.067 170.667-17.067s170.667 0.853 170.667 17.067zM682.667 512c0 16.213-5.973 17.067-170.667 17.067s-170.667-0.853-170.667-17.067c0-16.213 5.973-17.067 170.667-17.067s170.667 0.853 170.667 17.067zM682.667 665.6c0 16.213-5.973 17.067-170.667 17.067s-170.667-0.853-170.667-17.067c0-16.213 5.973-17.067 170.667-17.067s170.667 0.853 170.667 17.067z"></path>
</svg>
