<!-- Generated by IcoMoon.io -->
<svg version="1.1" xmlns="http://www.w3.org/2000/svg" width="1024" height="1024" viewBox="0 0 1024 1024">
<title></title>
<g id="icomoon-ignore">
</g>
<path fill="#3c5a99" d="M967.097 1024c31.196 0 56.493-25.297 56.493-56.493v-910.608c0-31.207-25.297-56.496-56.493-56.496h-910.604c-31.207 0-56.493 25.289-56.493 56.496v910.608c0 31.196 25.286 56.493 56.493 56.493h910.604z"></path>
<path fill="#fefefe" d="M710.877 1024v-400.364h140.174l20.986-156.032h-161.16v-99.619c0-45.175 13.083-75.959 80.655-75.959l86.182-0.039v-139.553c-14.909-1.898-66.065-6.148-125.58-6.148-124.255 0-209.318 72.713-209.318 206.25v115.068h-140.53v156.032h140.53v400.364h168.061z"></path>
</svg>
