<!-- Generated by IcoMoon.io -->
<svg version="1.1" xmlns="http://www.w3.org/2000/svg" width="1801" height="1024" viewBox="0 0 1801 1024">
<title></title>
<g id="icomoon-ignore">
</g>
<path fill="#000" d="M406.069 353.103c-19.421 19.421-35.31 45.903-35.31 58.262 0 33.545 58.262 82.979 116.524 98.869 54.731 14.124 68.855 60.028 22.952 68.855-15.89 3.531-42.372-7.062-56.497-22.952-35.31-33.545-82.979-35.31-82.979-1.766 0 74.152 160.662 112.993 220.69 52.966 52.966-54.731 26.483-116.524-70.621-165.959-77.683-37.076-82.979-44.138-44.138-49.434 22.952-3.531 45.903 1.766 49.434 12.359s24.717 19.421 49.434 19.421c31.779 0 38.841-7.062 30.014-31.779-26.483-77.683-137.71-100.634-199.503-38.841z"></path>
<path fill="#000" d="M665.6 330.152c-7.062 5.297-12.359 77.683-12.359 158.897 0 134.179 3.531 146.538 35.31 146.538 26.483 0 35.31-12.359 35.31-49.434 0-74.152 19.421-127.117 45.903-127.117 17.655 0 24.717 24.717 24.717 88.276 0 75.917 5.297 88.276 35.31 88.276 31.779 0 35.31-12.359 35.31-105.931 0-97.103-3.531-105.931-44.138-116.524-24.717-5.297-56.497-7.062-70.621 0-19.421 7.062-26.483-3.531-26.483-42.372 0-49.434-30.014-70.621-58.262-40.607z"></path>
<path fill="#000" d="M939.255 427.255c-37.076 37.076-22.952 52.966 40.607 42.372 77.683-15.89 81.214 10.593 5.297 33.545-132.414 40.607-102.4 132.414 45.903 132.414h90.041l-7.062-91.807c-1.766-51.2-14.124-104.166-22.952-116.524-22.952-26.483-123.586-28.248-151.834 0zM1032.828 563.2c-5.297 10.593-24.717 19.421-40.607 19.421-26.483-1.766-26.483-3.531 3.531-26.483 37.076-28.248 56.497-22.952 37.076 7.062z"></path>
<path fill="#000" d="M1147.586 522.593c0 100.634 3.531 112.993 35.31 112.993 30.014 0 35.31-12.359 35.31-70.621 0-52.966 8.828-74.152 31.779-82.979 30.014-12.359 56.497-38.841 56.497-61.793 0-5.297-35.31-10.593-79.448-10.593h-79.448v112.993z"></path>
<path fill="#000" d="M1336.497 437.848c-33.545 37.076-38.841 112.993-12.359 164.193 28.248 49.434 150.069 47.669 178.317-3.531 19.421-37.076 17.655-38.841-52.966-26.483-44.138 7.062-72.386 3.531-72.386-7.062 0-8.828 31.779-17.655 70.621-17.655 56.497 0 70.621-7.062 70.621-31.779 0-93.572-120.055-144.772-181.848-77.683zM1438.897 476.69c5.297 8.828-5.297 17.655-26.483 17.655s-31.779-8.828-26.483-17.655c5.297-10.593 17.655-17.655 26.483-17.655s21.186 7.062 26.483 17.655z"></path>
</svg>
